<svg width="16" height="16" viewBox="0 0 16 16" fill="none" xmlns="http://www.w3.org/2000/svg">
<path d="M1.99976 3H4.99976V9.5H1.99976C1.86715 9.5 1.73997 9.44732 1.6462 9.35355C1.55243 9.25979 1.49976 9.13261 1.49976 9V3.5C1.49976 3.36739 1.55243 3.24021 1.6462 3.14645C1.73997 3.05268 1.86715 3 1.99976 3V3Z" stroke="#FE3054" stroke-linecap="round" stroke-linejoin="round"/>
<path d="M4.99976 9.5L7.49976 14.5C7.7624 14.5 8.02247 14.4483 8.26512 14.3478C8.50777 14.2472 8.72825 14.0999 8.91397 13.9142C9.09969 13.7285 9.24701 13.508 9.34751 13.2654C9.44802 13.0227 9.49976 12.7626 9.49976 12.5V11H13.367C13.5088 11 13.6489 10.9698 13.7782 10.9115C13.9074 10.8532 14.0228 10.7681 14.1167 10.6618C14.2105 10.5555 14.2807 10.4305 14.3225 10.295C14.3643 10.1595 14.3768 10.0167 14.3592 9.87597L13.6092 3.87597C13.579 3.63411 13.4615 3.41163 13.2788 3.25032C13.0961 3.08902 12.8607 3 12.617 3H4.99976" stroke="#FE3054" stroke-linecap="round" stroke-linejoin="round"/>
</svg>
