<svg width="64" height="64" viewBox="0 0 64 64" fill="none" xmlns="http://www.w3.org/2000/svg">
<path fill-rule="evenodd" clip-rule="evenodd" d="M52.9038 17.0356C50.2783 14.4101 46.7173 12.9351 43.0043 12.9351V13.9351L43.0014 12.9351L21.0008 13.0001L20.9993 13.0001C17.7083 13.0007 14.5227 14.1603 12.0014 16.2755C9.4798 18.3909 7.78391 21.327 7.21146 24.5684C7.20861 24.5845 7.20616 24.6006 7.20411 24.6167L3.12564 45.5925L3.12243 45.6098C2.82711 47.2853 3.07362 49.0114 3.82615 50.5373C4.57868 52.0631 5.79805 53.3094 7.30716 54.095C8.81626 54.8806 10.5365 55.1647 12.2181 54.906C13.8996 54.6473 15.4549 53.8592 16.6581 52.6563C16.6786 52.6358 16.6981 52.6146 16.7164 52.5928L27.205 40.9983L36.8066 40.9599L47.2842 52.5909C47.303 52.6133 47.3229 52.6351 47.344 52.6561C48.5471 53.8591 50.1024 54.6471 51.784 54.9058C53.4656 55.1646 55.1858 54.8805 56.6949 54.0949C58.204 53.3093 59.4234 52.063 60.1759 50.5371C60.9285 49.0113 61.175 47.2852 60.8796 45.6097L60.8766 45.5931L56.7888 24.4873C56.7885 24.4856 56.7882 24.4839 56.7878 24.4822C56.2892 21.6802 54.9438 19.0755 52.9038 17.0356ZM56.1555 31.7357C55.4625 33.634 54.3602 35.3782 52.9038 36.8346C50.2788 39.4596 46.7187 40.9345 43.0065 40.9351H43.0043L39.4888 40.9491L48.7833 51.2669C49.6821 52.155 50.8386 52.7369 52.0881 52.9291C53.3493 53.1232 54.6395 52.9101 55.7714 52.3209C56.9033 51.7316 57.8178 50.7969 58.3822 49.6525C58.9454 48.5105 59.1307 47.219 58.9114 45.9649L56.1555 31.7357ZM37.2627 38.958L43.0003 38.9351L43.0043 38.9351C46.1869 38.9351 49.2392 37.6708 51.4896 35.4203C53.74 33.1699 55.0043 30.1177 55.0043 26.9351C55.0043 23.7525 53.74 20.7002 51.4896 18.4498C49.2395 16.1997 46.1878 14.9354 43.0058 14.9351H43.0043L21.0038 15.0001L21.0009 15.0001C18.1795 15.0003 15.4484 15.9943 13.2869 17.8077C11.1415 19.6075 9.69344 22.1002 9.19214 24.854C9.18916 24.8806 9.18511 24.9071 9.17997 24.9335L5.09061 45.9653C4.8714 47.2194 5.05671 48.5107 5.61987 49.6526C6.18428 50.7971 7.09883 51.7318 8.23068 52.321C9.36253 52.9102 10.6528 53.1233 11.9139 52.9292C13.1636 52.737 14.3203 52.1549 15.2192 51.2666L26.018 39.3293C26.2066 39.1207 26.4743 39.0012 26.7555 39.0001L37.2287 38.9582C37.24 38.9579 37.2513 38.9579 37.2627 38.958ZM23 23C23 22.4477 22.5523 22 22 22C21.4477 22 21 22.4477 21 23V26H18C17.4477 26 17 26.4477 17 27C17 27.5523 17.4477 28 18 28H21V31C21 31.5523 21.4477 32 22 32C22.5523 32 23 31.5523 23 31V28H26C26.5523 28 27 27.5523 27 27C27 26.4477 26.5523 26 26 26H23V23ZM37 27C37 26.4477 37.4477 26 38 26H46C46.5523 26 47 26.4477 47 27C47 27.5523 46.5523 28 46 28H38C37.4477 28 37 27.5523 37 27Z" fill="url(#paint0_linear)"/>
<defs>
<linearGradient id="paint0_linear" x1="3.00098" y1="12.9351" x2="67.1495" y2="27.0436" gradientUnits="userSpaceOnUse">
<stop stop-color="#04CF90"/>
<stop offset="1" stop-color="#9147FF"/>
</linearGradient>
</defs>
</svg>
