<svg width="16" height="16" viewBox="0 0 16 16" fill="none" xmlns="http://www.w3.org/2000/svg">
<path d="M1.99976 6.5H4.99976V13H1.99976C1.86715 13 1.73997 12.9473 1.6462 12.8536C1.55243 12.7598 1.49976 12.6326 1.49976 12.5V7C1.49976 6.86739 1.55243 6.74021 1.6462 6.64645C1.73997 6.55268 1.86715 6.5 1.99976 6.5V6.5Z" stroke="#04CF90" stroke-linecap="round" stroke-linejoin="round"/>
<path d="M4.99976 6.5L7.49976 1.5C7.7624 1.5 8.02247 1.55173 8.26512 1.65224C8.50777 1.75275 8.72825 1.90007 8.91397 2.08579C9.09969 2.2715 9.24701 2.49198 9.34751 2.73463C9.44802 2.97728 9.49976 3.23736 9.49976 3.5V5H13.367C13.5088 5 13.6489 5.03015 13.7782 5.08846C13.9074 5.14677 14.0228 5.2319 14.1167 5.3382C14.2105 5.4445 14.2807 5.56954 14.3225 5.70502C14.3643 5.84051 14.3768 5.98334 14.3592 6.12403L13.6092 12.124C13.579 12.3659 13.4615 12.5884 13.2788 12.7497C13.0961 12.911 12.8607 13 12.617 13H4.99976" stroke="#04CF90" stroke-linecap="round" stroke-linejoin="round"/>
</svg>
