<svg width="214" height="99" viewBox="0 0 214 99" fill="none" xmlns="http://www.w3.org/2000/svg">
<path d="M14.2519 99C11.7288 99 9.2056 98.545 6.68244 97.6349C4.1987 96.6853 1.97122 95.2807 0 93.4211L1.50828 91.601C3.40835 89.3081 6.80954 89.1038 9.521 90.3349C11.2162 91.0866 12.8721 91.4625 14.4885 91.4625C16.302 91.4625 17.6424 91.1262 18.5098 90.4536C19.4165 89.7809 19.8699 88.8709 19.8699 87.7235C19.8699 87.13 19.7319 86.6156 19.4559 86.1804C19.2194 85.7451 18.8449 85.3692 18.3324 85.0527C17.8593 84.6966 17.2679 84.3801 16.5583 84.1031C15.888 83.7866 15.139 83.4502 14.3111 83.0941L9.28445 80.9575C8.29884 80.5619 7.33294 80.0475 6.38675 79.4144C5.47999 78.7814 4.65208 78.0494 3.90302 77.2185C3.19338 76.348 2.62172 75.3588 2.18806 74.251C1.75439 73.1035 1.53755 71.8176 1.53755 70.3932C1.53755 68.8105 1.87266 67.3268 2.54287 65.9419C3.21309 64.5175 4.15928 63.291 5.38143 62.2622C6.60359 61.1939 8.04258 60.363 9.69841 59.7695C11.3937 59.176 13.2466 58.8793 15.2572 58.8793C17.5044 58.8793 19.7122 59.3145 21.8805 60.185C24.0883 61.0554 26.0201 62.3216 27.6759 63.9834L23.2407 69.503C21.9791 68.5138 20.7175 67.762 19.4559 67.2476C18.1944 66.6937 16.7948 66.4167 15.2572 66.4167C13.7591 66.4167 12.5567 66.7333 11.6499 67.3663C10.7826 67.9598 10.3489 68.8105 10.3489 69.9184C10.3489 70.5119 10.4869 71.0263 10.7629 71.4615C11.0783 71.8572 11.4922 72.2331 12.0047 72.5892C12.5567 72.9057 13.1875 73.2222 13.8971 73.5388C14.6067 73.8157 15.3755 74.1323 16.2034 74.4884L21.1709 76.5063C23.5364 77.4559 25.3893 78.7616 26.7298 80.4234C28.1096 82.0852 28.7995 84.2811 28.7995 87.0113C28.7995 88.6335 28.4644 90.1766 27.7942 91.6406C27.1634 93.065 26.2172 94.3311 24.9557 95.439C23.7335 96.5073 22.2157 97.3777 20.4021 98.0504C18.5886 98.6835 16.5385 99 14.2519 99Z" fill="#9147FF"/>
<path d="M41.6992 98.2878V66.9509H31.1137V66.1833C31.1137 62.5427 34.065 59.5915 37.7056 59.5915H61.0368V66.9509H50.4514V98.2878H41.6992Z" fill="#9147FF"/>
<path d="M73.729 78.7022L72.7828 82.2632H81.0028L80.1158 78.7022C79.5638 76.7635 79.0316 74.706 78.5191 72.5298C78.0066 70.3536 77.4941 68.2566 76.9816 66.2387H76.745C76.2719 68.2962 75.7791 70.413 75.2666 72.5892C74.7935 74.7258 74.281 76.7635 73.729 78.7022ZM59.7728 98.2878L70.3933 64.2214C71.2519 61.4673 73.8015 59.5915 76.6864 59.5915H82.3038L94.3677 98.2878H85.1424L82.7769 89.0885H71.0088L68.6433 98.2878H59.7728Z" fill="#9147FF"/>
<path d="M101.76 98.2878V66.9509H91.1743V66.1833C91.1743 62.5427 94.1256 59.5915 97.7662 59.5915H121.097V66.9509H110.512V98.2878H101.76Z" fill="#9147FF"/>
<path d="M137.376 99C134.853 99 132.33 98.545 129.807 97.6349C127.323 96.6853 125.095 95.2807 123.124 93.4211L124.633 91.601C126.533 89.3081 129.934 89.1038 132.645 90.3349C134.341 91.0866 135.996 91.4625 137.613 91.4625C139.426 91.4625 140.767 91.1262 141.634 90.4536C142.541 89.7809 142.994 88.8709 142.994 87.7235C142.994 87.13 142.856 86.6156 142.58 86.1804C142.344 85.7451 141.969 85.3692 141.457 85.0527C140.984 84.6966 140.392 84.3801 139.683 84.1031C139.012 83.7866 138.263 83.4502 137.435 83.0941L132.409 80.9575C131.423 80.5619 130.457 80.0475 129.511 79.4144C128.604 78.7814 127.776 78.0494 127.027 77.2185C126.318 76.348 125.746 75.3588 125.312 74.251C124.879 73.1035 124.662 71.8176 124.662 70.3932C124.662 68.8105 124.997 67.3268 125.667 65.9419C126.337 64.5175 127.284 63.291 128.506 62.2622C129.728 61.1939 131.167 60.363 132.823 59.7695C134.518 59.176 136.371 58.8793 138.382 58.8793C140.629 58.8793 142.836 59.3145 145.005 60.185C147.213 61.0554 149.144 62.3216 150.8 63.9834L146.365 69.503C145.103 68.5138 143.842 67.762 142.58 67.2476C141.319 66.6937 139.919 66.4167 138.382 66.4167C136.883 66.4167 135.681 66.7333 134.774 67.3663C133.907 67.9598 133.473 68.8105 133.473 69.9184C133.473 70.5119 133.611 71.0263 133.887 71.4615C134.203 71.8572 134.617 72.2331 135.129 72.5892C135.681 72.9057 136.312 73.2222 137.021 73.5388C137.731 73.8157 138.5 74.1323 139.328 74.4884L144.295 76.5063C146.661 77.4559 148.514 78.7616 149.854 80.4234C151.234 82.0852 151.924 84.2811 151.924 87.0113C151.924 88.6335 151.589 90.1766 150.918 91.6406C150.288 93.065 149.342 94.3311 148.08 95.439C146.858 96.5073 145.34 97.3777 143.526 98.0504C141.713 98.6835 139.663 99 137.376 99Z" fill="#9147FF"/>
<path d="M101 47H135V52H106C103.239 52 101 49.7614 101 47Z" fill="#04CF90"/>
<path d="M100.926 9.54588C100.926 8.53095 101.239 7.5407 101.822 6.71005L106.533 0V43.9252H100.926V9.54588Z" fill="#9147FF"/>
<path d="M114.943 19.1219C114.943 17.8633 115.424 16.6522 116.288 15.7364L120.55 11.2149V43.9252H114.943V19.1219Z" fill="#9147FF"/>
<path d="M128.961 9.54588C128.961 8.53095 129.274 7.5407 129.857 6.71005L134.568 0V43.9252H128.961V9.54588Z" fill="#9147FF"/>
<path d="M13.9305 52.4218C11.4643 52.4218 8.99801 51.9824 6.53175 51.1036C4.10402 50.1866 1.92677 48.8301 0 47.0343L1.66314 45.0514C3.42284 42.9535 6.54211 42.7619 9.02177 43.9235C9.11614 43.9677 9.21099 44.0111 9.3063 44.0539C10.9633 44.7799 12.5818 45.1429 14.1618 45.1429C15.9344 45.1429 17.2446 44.8181 18.0924 44.1685C18.9787 43.519 19.4218 42.6401 19.4218 41.5321C19.4218 40.9589 19.287 40.4622 19.0172 40.0419C18.786 39.6216 18.4199 39.2586 17.919 38.9529C17.4565 38.609 16.8785 38.3033 16.1849 38.0359C15.5298 37.7302 14.7976 37.4054 13.9883 37.0615L9.07508 34.9982C8.1117 34.6161 7.16758 34.1194 6.24273 33.508C5.35642 32.8966 4.54717 32.1898 3.815 31.3874C3.12137 30.5467 2.5626 29.5915 2.13871 28.5216C1.71482 27.4135 1.50288 26.1717 1.50288 24.7962C1.50288 23.2678 1.83043 21.8349 2.48553 20.4976C3.14063 19.122 4.06548 17.9375 5.26008 16.9441C6.45468 15.9124 7.86122 15.11 9.4797 14.5369C11.1367 13.9637 12.9479 13.6771 14.9132 13.6771C17.1097 13.6771 19.2677 14.0974 21.3871 14.9381C23.5451 15.7787 25.4334 17.0014 27.0518 18.6062L22.7166 23.9365C21.4835 22.9812 20.2503 22.2552 19.0172 21.7585C17.7841 21.2236 16.4161 20.9561 14.9132 20.9561C13.4488 20.9561 12.2735 21.2618 11.3872 21.8731C10.5394 22.4463 10.1155 23.2678 10.1155 24.3377C10.1155 24.9108 10.2504 25.4075 10.5202 25.8278C10.8284 26.2099 11.2331 26.5729 11.734 26.9168C12.2735 27.2225 12.8901 27.5282 13.5837 27.8339C14.2774 28.1013 15.0288 28.407 15.838 28.7509L20.6935 30.6996C23.0056 31.6166 24.8168 32.8775 26.127 34.4824C27.4757 36.0872 28.1501 38.2078 28.1501 40.8443C28.1501 42.4109 27.8225 43.9011 27.1674 45.3148C26.5509 46.6904 25.626 47.9131 24.3929 48.983C23.1983 50.0146 21.7147 50.8552 19.9421 51.5048C18.1694 52.1162 16.1656 52.4218 13.9305 52.4218Z" fill="#04CF90"/>
<path d="M40.7588 51.7341V21.4719H30.4121V19.3003C30.4121 16.5745 32.6217 14.3649 35.3474 14.3649H59.6604V21.4719H49.3137V51.7341H40.7588Z" fill="#04CF90"/>
<path d="M65.5369 51.7341V19.3003C65.5369 16.5745 67.7466 14.3649 70.4723 14.3649H79.1207C81.1245 14.3649 82.9935 14.556 84.7276 14.9381C86.5002 15.3202 88.0416 15.9697 89.3518 16.8868C90.662 17.7656 91.7025 18.9501 92.4732 20.4403C93.2439 21.9304 93.6292 23.7836 93.6292 25.9998C93.6292 28.7509 93.0127 31.0244 91.7795 32.8202C90.5849 34.5779 88.9665 35.8961 86.9241 36.7749L95.4789 51.7341H85.9414L78.716 38.2651H74.034V51.7341H65.5369ZM74.034 31.5593H78.427C80.6621 31.5593 82.3576 31.1008 83.5137 30.1838C84.7083 29.2285 85.3056 27.8339 85.3056 25.9998C85.3056 24.1657 84.7083 22.8857 83.5137 22.1597C82.3576 21.4337 80.6621 21.0707 78.427 21.0707H74.034V31.5593Z" fill="#04CF90"/>
<path d="M154.564 32.8202L153.64 36.2591H161.674L160.807 32.8202C160.268 30.948 159.747 28.961 159.246 26.8595C158.746 24.758 158.245 22.7328 157.744 20.7842H157.512C157.05 22.7711 156.568 24.8153 156.067 26.9168C155.605 28.9801 155.104 30.948 154.564 32.8202ZM140.923 51.7341L151.626 17.8151C152.274 15.7613 154.179 14.3649 156.333 14.3649H162.946L174.738 51.7341H165.72L163.408 42.8503H151.906L149.593 51.7341H140.923Z" fill="#04CF90"/>
<path d="M178.856 51.7341V19.3003C178.856 16.5745 181.065 14.3649 183.791 14.3649H188.162L194.231 30.9862C194.617 32.0942 194.983 33.2405 195.33 34.425C195.676 35.5713 196.042 36.7176 196.428 37.8639H196.659C197.044 36.7176 197.391 35.5713 197.7 34.425C198.046 33.2405 198.412 32.0942 198.798 30.9862L203.58 17.636C204.283 15.674 206.142 14.3649 208.226 14.3649H214V51.7341H206.254V38.0359C206.254 37.1188 206.293 36.1063 206.37 34.9982C206.447 33.8901 206.543 32.782 206.659 31.6739C206.775 30.5276 206.89 29.4196 207.006 28.3497C207.121 27.2416 207.237 26.229 207.353 25.312H207.121L204.058 34.1958L198.682 48.4671H194L188.624 34.1958L185.619 25.312H185.387C185.503 26.229 185.619 27.2416 185.734 28.3497C185.85 29.4196 185.966 30.5276 186.081 31.6739C186.197 32.782 186.293 33.8901 186.37 34.9982C186.447 36.1063 186.486 37.1188 186.486 38.0359V51.7341H178.856Z" fill="#04CF90"/>
</svg>
