<svg width="64" height="64" viewBox="0 0 64 64" fill="none" xmlns="http://www.w3.org/2000/svg">
<path fill-rule="evenodd" clip-rule="evenodd" d="M13.2929 15.2929C13.4804 15.1054 13.7348 15 14 15H56C56.2652 15 56.5196 15.1054 56.7071 15.2929C56.8946 15.4804 57 15.7348 57 16V50C57 50.7957 56.6839 51.5587 56.1213 52.1213C55.5587 52.6839 54.7957 53 54 53H12C12.6453 52.1396 13 51.0881 13 50V16C13 15.7348 13.1054 15.4804 13.2929 15.2929ZM54 55H8C6.67392 55 5.40215 54.4732 4.46447 53.5355C3.52678 52.5979 3 51.3261 3 50V22C3 21.4477 3.44772 21 4 21C4.55228 21 5 21.4477 5 22V50C5 50.7956 5.31607 51.5587 5.87868 52.1213C6.44129 52.6839 7.20435 53 8 53C8.79565 53 9.55871 52.6839 10.1213 52.1213C10.6839 51.5587 11 50.7957 11 50V16C11 15.2043 11.3161 14.4413 11.8787 13.8787C12.4413 13.3161 13.2043 13 14 13H56C56.7957 13 57.5587 13.3161 58.1213 13.8787C58.6839 14.4413 59 15.2044 59 16V50C59 51.3261 58.4732 52.5979 57.5355 53.5355C56.5979 54.4732 55.3261 55 54 55ZM21 26C21 25.4477 21.4477 25 22 25H48C48.5523 25 49 25.4477 49 26C49 26.5523 48.5523 27 48 27H22C21.4477 27 21 26.5523 21 26ZM21 34C21 33.4477 21.4477 33 22 33H48C48.5523 33 49 33.4477 49 34C49 34.5523 48.5523 35 48 35H22C21.4477 35 21 34.5523 21 34ZM22 41C21.4477 41 21 41.4477 21 42C21 42.5523 21.4477 43 22 43H48C48.5523 43 49 42.5523 49 42C49 41.4477 48.5523 41 48 41H22Z" fill="url(#paint0_linear)"/>
<defs>
<linearGradient id="paint0_linear" x1="3" y1="13" x2="65.1225" y2="26.2119" gradientUnits="userSpaceOnUse">
<stop stop-color="#04CF90"/>
<stop offset="1" stop-color="#9147FF"/>
</linearGradient>
</defs>
</svg>
