<svg width="813" height="736" viewBox="0 0 813 736" fill="none" xmlns="http://www.w3.org/2000/svg">
<path d="M271.875 736C267.791 736 263.707 735.12 260.79 733.361L4.9591 584.985C1.75027 583.226 0 580.587 0 577.654C0 574.429 2.33369 570.91 6.41765 568.564L526.831 266.535C534.415 262.136 545.5 261.843 552.21 265.655L808.041 414.031C811.25 415.79 813 418.429 813 421.361C813 424.587 810.666 428.106 806.582 430.452L286.169 732.481C281.793 734.827 276.834 736 271.875 736ZM541.125 265.948C536.749 265.948 532.082 267.121 528.29 269.174L7.87621 571.203C4.66738 572.963 2.91711 575.309 2.91711 577.654C2.91711 579.414 4.08396 581.173 6.41765 582.346L262.249 731.015C267.791 734.241 278.001 733.947 284.71 730.135L805.124 428.106C808.333 426.346 810.083 423.707 810.083 421.655C810.083 419.895 808.916 418.136 806.582 416.963L550.751 268.294C548.126 266.535 544.625 265.948 541.125 265.948Z" fill="url(#paint0_linear)"/>
<path d="M271.875 709.262C267.791 709.262 263.707 708.385 260.79 706.629L4.9591 558.546C1.75027 556.79 0 554.156 0 551.23C0 548.011 2.33369 544.499 6.41765 542.158L526.831 240.725C534.415 236.336 545.501 236.043 552.21 239.848L808.041 388.222C811.25 389.978 813 392.612 813 395.539C813 398.758 810.666 402.27 806.582 404.611L286.169 706.043C281.793 708.092 276.834 709.262 271.875 709.262ZM262.249 704.287C267.791 707.507 278.001 707.214 284.71 703.409L805.124 401.977C808.333 400.221 810.083 397.587 810.083 395.539C810.083 393.783 808.916 392.027 806.582 390.856L550.751 242.481C544.917 239.262 534.999 239.555 528.29 243.359L7.87621 544.792C4.66738 546.548 2.91711 549.181 2.91711 551.23C2.91711 552.986 4.08396 554.742 6.41765 555.912L262.249 704.287Z" fill="url(#paint1_linear)"/>
<path d="M810.669 349.969L797.556 357.837L550.742 215.343C544.623 211.846 534.132 212.138 526.847 216.217L15.444 511.695L1.45692 505.284V524.225C1.45692 526.265 2.91391 528.304 5.53649 529.761L261.092 677.5C267.212 680.997 277.702 680.705 284.987 676.626L804.841 376.486C808.92 374.155 810.669 371.241 810.669 368.618V349.969Z" fill="url(#paint2_linear)"/>
<path d="M15.444 511.695L1.45692 505.284V524.225C1.45692 526.265 2.91391 528.304 5.53649 529.761L6.11929 530.053C5.2451 529.179 4.9537 528.013 4.9537 526.847V508.198L18.9408 514.317L38.7559 502.953C37.8817 501.787 37.0075 500.913 35.8419 499.747L15.444 511.695Z" fill="#D4088C"/>
<path d="M797.556 357.837L676.335 287.901C675.169 288.775 674.003 289.358 672.546 290.232L794.059 360.459L807.172 352.592V371.241C807.172 372.989 806.589 374.738 804.841 376.486C808.629 374.155 810.378 371.241 810.378 368.619V349.969L797.556 357.837Z" fill="#6EE8FC"/>
<path d="M261.092 658.851L5.53633 511.403C-0.583026 507.906 0.291167 501.787 7.28472 497.708L527.138 197.568C534.132 193.488 544.914 193.197 551.033 196.694L806.589 344.432C812.708 347.929 811.834 354.048 804.841 358.128L284.987 658.268C277.993 662.056 267.212 662.347 261.092 658.851Z" fill="url(#paint3_linear)"/>
<path d="M261.092 658.851L5.53633 511.403C-0.583026 507.906 0.291167 501.787 7.28472 497.708L527.138 197.568C534.132 193.488 544.914 193.197 551.033 196.694L806.589 344.432C812.708 347.929 811.834 354.048 804.841 358.128L284.987 658.268C277.993 662.056 267.212 662.347 261.092 658.851Z" fill="url(#paint4_linear)"/>
<path d="M264.88 658.851L9.0331 511.403C2.91375 507.907 3.78794 501.787 10.7815 497.708L530.635 197.568C534.132 195.528 538.212 194.654 542.291 194.362C537.046 194.071 531.218 195.237 526.847 197.568L7.28472 497.416C0.291167 501.496 -0.583026 507.615 5.53633 511.112L261.092 658.851C264.298 660.599 268.669 661.473 273.04 661.182C270.126 660.89 267.212 660.308 264.88 658.851Z" fill="#D4088C"/>
<path d="M806.589 344.141L550.742 196.402C547.537 194.654 543.166 193.78 538.795 194.071C542 194.362 544.914 194.945 547.245 196.402L802.801 344.141C808.92 347.638 808.046 353.757 801.053 357.837L281.199 657.976C277.702 660.016 273.623 661.182 269.252 661.182C274.497 661.473 280.033 660.307 284.404 657.976L804.258 357.837C811.834 353.757 812.709 347.638 806.589 344.141Z" fill="#6EE8FC"/>
<path d="M290.524 649.817L21.2722 494.502L518.688 207.184L787.649 362.79L290.524 649.817Z" fill="url(#paint5_radial)"/>
<path d="M678.083 287.318L648.943 270.709C647.777 270.126 648.069 268.96 649.234 268.378C650.4 267.503 652.44 267.503 653.605 268.086L682.745 284.696C683.911 285.279 683.619 286.444 682.454 287.027C680.997 287.901 679.248 287.901 678.083 287.318Z" fill="url(#paint6_radial)"/>
<path d="M145.408 604.942L124.718 592.995C123.553 592.12 122.387 590.372 122.387 588.624C122.387 586.875 123.553 586.001 124.718 586.875L145.408 598.823C146.573 599.697 147.739 601.445 147.739 603.194C147.739 604.942 146.573 605.816 145.408 604.942Z" fill="#58068E"/>
<path d="M497.125 495.376L465.363 513.734C462.74 515.191 458.66 515.483 456.329 514.026L447.879 509.072C445.547 507.615 445.839 505.284 448.461 503.827L480.224 485.469C482.846 484.012 486.926 483.721 489.257 485.178L497.708 490.131C500.039 491.297 499.748 493.628 497.125 495.376Z" fill="#6EE1F8"/>
<path d="M558.318 459.826L526.556 478.184C523.934 479.641 519.854 479.932 517.523 478.475L509.072 473.522C506.741 472.065 507.032 469.733 509.655 468.277L541.417 449.918C544.04 448.461 548.12 448.17 550.451 449.627L558.901 454.581C561.524 456.038 561.232 458.369 558.318 459.826Z" fill="#A31FA9"/>
<path opacity="0.4" d="M788.522 362.208L290.523 649.817L87.1277 338.022L585.418 50.1205L788.522 362.208Z" fill="url(#paint7_linear)"/>
<path d="M198.151 645.446L195.528 644.572L232.827 538.795C240.112 518.105 255.556 500.039 271.583 493.628C279.159 490.423 286.444 490.423 292.272 493.336L303.054 498.582C308.008 500.913 313.836 500.913 320.538 498.29C335.108 492.754 349.386 476.727 356.963 457.495C365.705 435.348 383.48 417.573 399.798 413.785L418.739 409.414C435.057 405.626 452.833 386.685 460.7 364.539L496.251 264.006C506.158 235.741 530.636 214.177 549.285 216.509L569.392 219.131C586.584 221.462 609.896 200.19 619.221 173.965L680.997 0L683.62 0.874202L621.843 174.839C611.936 202.813 587.458 224.668 568.809 222.045L548.702 219.423C531.51 217.091 508.198 238.363 498.873 264.881L463.031 365.413C454.872 388.725 436.223 408.248 419.03 412.328L400.09 416.699C384.354 420.196 367.744 437.388 359.294 458.66C351.426 478.475 336.273 495.085 321.121 500.913C313.836 503.827 306.842 503.827 301.306 500.913L290.524 495.668C285.57 493.045 279.159 493.337 272.457 495.959C257.305 502.078 242.443 519.562 235.45 539.377L198.151 645.446Z" fill="url(#paint8_linear)"/>
<path opacity="0.4" d="M580.724 332.095L189.464 562.709L187.183 542.504C186.498 536.443 191.196 528.637 197.536 524.965L221.206 510.925C227.546 507.253 232.244 499.447 231.56 493.386L227.58 458.141C226.895 452.079 231.593 444.273 237.933 440.602L264.376 425.111C270.716 421.44 276.479 423.063 277.163 429.124L279.115 446.41C279.799 452.471 285.562 454.094 291.902 450.423L313.114 438.024C319.454 434.352 324.152 426.546 323.468 420.485L314.748 343.259C314.063 337.198 318.761 329.392 325.101 325.72L345.469 313.644C351.809 309.972 356.507 302.167 355.822 296.105L353.541 275.901C352.856 269.839 357.555 262.034 363.894 258.362L388.119 244.031C394.459 240.36 400.221 241.983 400.906 248.044L401.717 255.228C402.402 261.289 408.165 262.912 414.504 259.24L434.343 247.679C440.682 244.007 446.445 245.63 447.13 251.691C447.814 257.753 453.577 259.375 459.917 255.704L477.827 245.269C484.167 241.598 488.865 233.792 488.181 227.731L478.421 141.301C477.736 135.239 482.435 127.433 488.774 123.762L505.84 113.65C512.18 109.978 516.878 102.172 516.193 96.1111L511.58 55.2533C510.895 49.192 515.593 41.3861 521.933 37.7146L536.541 29.2443C542.881 25.5728 548.644 27.1956 549.328 33.257L583.044 331.833L580.724 332.095Z" fill="#485671"/>
<path d="M375.554 248.33L365.13 249.507C364.261 249.605 363.294 248.835 363.196 247.966C363.098 247.098 363.869 246.131 364.737 246.033L375.161 244.856C376.03 244.758 376.997 245.528 377.095 246.397C377.483 247.233 376.712 248.2 375.554 248.33Z" fill="white"/>
<path d="M389.163 246.794L384.24 247.349C383.372 247.447 382.405 246.677 382.307 245.808C382.209 244.94 382.979 243.973 383.848 243.875L388.77 243.319C389.639 243.221 390.606 243.991 390.704 244.86C390.802 245.729 390.031 246.695 389.163 246.794Z" fill="white"/>
<path d="M370.515 255.644L365.882 256.167C365.013 256.265 364.046 255.495 363.948 254.626C363.85 253.757 364.621 252.791 365.489 252.693L370.122 252.169C370.991 252.071 371.958 252.842 372.056 253.711C372.154 254.579 371.673 255.513 370.515 255.644Z" fill="white"/>
<path d="M384.124 254.107L379.201 254.663C378.333 254.761 377.366 253.991 377.268 253.122C377.17 252.253 377.94 251.287 378.809 251.188L383.731 250.633C384.6 250.534 385.567 251.305 385.665 252.174C385.763 253.042 384.992 254.009 384.124 254.107Z" fill="white"/>
<path d="M384.007 260.865L366.923 262.794C366.055 262.892 365.088 262.122 364.99 261.253C364.892 260.384 365.662 259.418 366.531 259.32L383.615 257.39C384.484 257.292 385.45 258.063 385.548 258.932C385.647 259.8 384.876 260.767 384.007 260.865Z" fill="white"/>
<path d="M397.327 259.361L392.404 259.917C391.536 260.015 390.569 259.244 390.471 258.376C390.373 257.507 391.143 256.54 392.012 256.442L396.934 255.886C397.803 255.788 398.77 256.559 398.868 257.428C398.966 258.296 398.485 259.23 397.327 259.361Z" fill="white"/>
<path d="M242.214 455.526L225.13 457.455C224.261 457.553 223.294 456.782 223.196 455.914C223.098 455.045 223.869 454.078 224.737 453.98L241.821 452.051C242.69 451.953 243.657 452.723 243.755 453.592C243.853 454.461 243.372 455.395 242.214 455.526Z" fill="white"/>
<path d="M255.823 453.989L250.901 454.545C250.032 454.643 249.065 453.872 248.967 453.003C248.869 452.135 249.64 451.168 250.508 451.07L255.431 450.514C256.299 450.416 257.266 451.187 257.364 452.055C257.462 452.924 256.692 453.891 255.823 453.989Z" fill="white"/>
<path d="M237.174 462.839L225.882 464.114C225.013 464.213 224.046 463.442 223.948 462.573C223.85 461.705 224.621 460.738 225.489 460.64L236.782 459.365C237.651 459.266 238.617 460.037 238.716 460.906C238.814 461.774 238.333 462.708 237.174 462.839Z" fill="white"/>
<path d="M250.784 461.302L245.862 461.858C244.993 461.956 244.026 461.186 243.928 460.317C243.83 459.449 244.601 458.482 245.469 458.384L250.392 457.828C251.26 457.73 252.227 458.5 252.325 459.369C252.423 460.238 251.653 461.204 250.784 461.302Z" fill="white"/>
<path d="M501.554 48.808L491.13 49.9851C490.261 50.0832 489.294 49.3126 489.196 48.4439C489.098 47.5753 489.869 46.6085 490.737 46.5104L501.161 45.3333C502.03 45.2352 502.997 46.0058 503.095 46.8745C503.193 47.7432 502.422 48.7099 501.554 48.808Z" fill="white"/>
<path d="M514.873 47.3039L509.951 47.8598C509.082 47.9579 508.116 47.1873 508.017 46.3186C507.919 45.4499 508.69 44.4832 509.559 44.3851L514.481 43.8292C515.35 43.7311 516.317 44.5017 516.415 45.3704C516.513 46.2391 516.032 47.1731 514.873 47.3039Z" fill="white"/>
<path d="M497.706 56.2806L491.914 56.9346C491.046 57.0327 490.079 56.2621 489.981 55.3934C489.883 54.5247 490.653 53.558 491.522 53.4599L497.313 52.8059C498.182 52.7079 499.149 53.4784 499.247 54.3471C499.345 55.2158 498.864 56.1498 497.706 56.2806Z" fill="white"/>
<path d="M513.052 54.5477L506.392 55.2997C505.524 55.3978 504.557 54.6272 504.459 53.7586C504.361 52.8899 505.131 51.9231 506 51.825L512.66 51.073C513.528 50.9749 514.495 51.7455 514.593 52.6142C514.691 53.4828 513.921 54.4496 513.052 54.5477Z" fill="white"/>
<path d="M528.193 45.7999L523.271 46.3557C522.402 46.4538 521.435 45.6832 521.337 44.8146C521.239 43.9459 522.01 42.9791 522.878 42.881L527.801 42.3252C528.669 42.2271 529.636 42.9977 529.734 43.8663C530.122 44.7023 529.351 45.6691 528.193 45.7999Z" fill="white"/>
<defs>
<linearGradient id="paint0_linear" x1="0" y1="499.518" x2="812.972" y2="499.518" gradientUnits="userSpaceOnUse">
<stop stop-color="#071033"/>
<stop offset="0.0867289" stop-color="#380E48"/>
<stop offset="0.1954" stop-color="#6F0C60"/>
<stop offset="0.2966" stop-color="#9B0A73"/>
<stop offset="0.3869" stop-color="#BA0981"/>
<stop offset="0.4632" stop-color="#CD0889"/>
<stop offset="0.5161" stop-color="#D4088C"/>
<stop offset="0.5676" stop-color="#C70886"/>
<stop offset="0.6625" stop-color="#A50A78"/>
<stop offset="0.7904" stop-color="#6F0C60"/>
<stop offset="0.9447" stop-color="#240F3F"/>
<stop offset="1" stop-color="#071033"/>
</linearGradient>
<linearGradient id="paint1_linear" x1="0" y1="473.325" x2="812.972" y2="473.325" gradientUnits="userSpaceOnUse">
<stop stop-color="#071033"/>
<stop offset="0.1015" stop-color="#244C6B"/>
<stop offset="0.2064" stop-color="#3F839E"/>
<stop offset="0.3041" stop-color="#54AFC7"/>
<stop offset="0.3913" stop-color="#04CF90"/>
<stop offset="0.465" stop-color="#6DE1F6"/>
<stop offset="0.5161" stop-color="#04CF90"/>
<stop offset="0.5655" stop-color="#56EDBE"/>
<stop offset="0.633333" stop-color="#04CF90"/>
<stop offset="0.7791" stop-color="#3F829E"/>
<stop offset="0.927" stop-color="#1A3858"/>
<stop offset="1" stop-color="#071033"/>
</linearGradient>
<linearGradient id="paint2_linear" x1="-160.745" y1="446.516" x2="1010.72" y2="446.516" gradientUnits="userSpaceOnUse">
<stop stop-color="#8D139B"/>
<stop offset="0.1651" stop-color="#851BA1"/>
<stop offset="0.4284" stop-color="#6E33B2"/>
<stop offset="0.7551" stop-color="#4958CD"/>
<stop offset="1" stop-color="#2979E4"/>
</linearGradient>
<linearGradient id="paint3_linear" x1="267.178" y1="347.476" x2="406.062" y2="588.009" gradientUnits="userSpaceOnUse">
<stop stop-color="#8D139B"/>
<stop offset="0.1651" stop-color="#851BA1"/>
<stop offset="0.4284" stop-color="#6E33B2"/>
<stop offset="0.7551" stop-color="#4958CD"/>
<stop offset="1" stop-color="#2979E4"/>
</linearGradient>
<linearGradient id="paint4_linear" x1="267.178" y1="347.476" x2="406.062" y2="588.009" gradientUnits="userSpaceOnUse">
<stop stop-color="#8D139B"/>
<stop offset="0.1651" stop-color="#851BA1"/>
<stop offset="0.4284" stop-color="#6E33B2"/>
<stop offset="0.7551" stop-color="#4958CD"/>
<stop offset="1" stop-color="#2979E4"/>
</linearGradient>
<radialGradient id="paint5_radial" cx="0" cy="0" r="1" gradientUnits="userSpaceOnUse" gradientTransform="translate(-10.113 153.425) rotate(29.9987) scale(731.228 723.968)">
<stop offset="0.0107527" stop-color="#2C35A2"/>
<stop offset="0.1635" stop-color="#252C88"/>
<stop offset="0.3975" stop-color="#1B2167"/>
<stop offset="0.621" stop-color="#15194F"/>
<stop offset="0.8273" stop-color="#101540"/>
<stop offset="1" stop-color="#0F133B"/>
</radialGradient>
<radialGradient id="paint6_radial" cx="0" cy="0" r="1" gradientUnits="userSpaceOnUse" gradientTransform="translate(633.393 263.153) rotate(30.0007) scale(94.8537 82.1469)">
<stop offset="0.0107527" stop-color="#2C35A2"/>
<stop offset="0.1635" stop-color="#252C88"/>
<stop offset="0.3975" stop-color="#1B2167"/>
<stop offset="0.621" stop-color="#15194F"/>
<stop offset="0.8273" stop-color="#101540"/>
<stop offset="1" stop-color="#0F133B"/>
</radialGradient>
<linearGradient id="paint7_linear" x1="520.25" y1="488.231" x2="340.306" y2="186.157" gradientUnits="userSpaceOnUse">
<stop stop-color="#2C75E4"/>
<stop offset="1" stop-color="#08142C"/>
</linearGradient>
<linearGradient id="paint8_linear" x1="195.376" y1="322.698" x2="683.394" y2="322.698" gradientUnits="userSpaceOnUse">
<stop stop-color="#071033"/>
<stop offset="0.1015" stop-color="#244C6B"/>
<stop offset="0.2064" stop-color="#3F839E"/>
<stop offset="0.3041" stop-color="#54AFC7"/>
<stop offset="0.3913" stop-color="#63CEE4"/>
<stop offset="0.465" stop-color="#6DE1F6"/>
<stop offset="0.5161" stop-color="#70E8FC"/>
<stop offset="0.5655" stop-color="#6ADBF0"/>
<stop offset="0.6565" stop-color="#59B9D1"/>
<stop offset="0.7791" stop-color="#3F829E"/>
<stop offset="0.927" stop-color="#1A3858"/>
<stop offset="1" stop-color="#071033"/>
</linearGradient>
</defs>
</svg>
