<svg width="64" height="64" viewBox="0 0 64 64" fill="none" xmlns="http://www.w3.org/2000/svg">
<path fill-rule="evenodd" clip-rule="evenodd" d="M12.9985 24C12.9985 13.5066 21.5051 5 31.9985 5C42.4919 5 50.9985 13.5066 50.9985 24C50.9985 30.1975 48.0313 35.702 43.4399 39.1702C43.4127 39.1886 43.3865 39.2084 43.3613 39.2293C40.1922 41.5976 36.2591 43 31.9985 43C27.7414 43 23.8113 41.5999 20.6436 39.2351C20.6152 39.2112 20.5855 39.1889 20.5546 39.1683C15.9647 35.6999 12.9985 30.1963 12.9985 24ZM19 40.4947C14.1267 36.649 10.9985 30.6898 10.9985 24C10.9985 12.402 20.4006 3 31.9985 3C43.5965 3 52.9985 12.402 52.9985 24C52.9985 30.6885 49.8717 36.6466 45 40.4924V60C45 60.3466 44.8206 60.6685 44.5258 60.8507C44.231 61.0329 43.8628 61.0495 43.5528 60.8945L31.9983 55.1181L20.4473 60.8944C20.1373 61.0494 19.7691 61.0329 19.4743 60.8507C19.1795 60.6685 19 60.3466 19 60V40.4947ZM21 41.8929V58.3819L31.551 53.1056C31.8325 52.9649 32.1639 52.9648 32.4454 53.1056L43 58.3821V41.8911C39.8006 43.8626 36.0324 45 31.9985 45C27.9659 45 24.1988 43.8633 21 41.8929ZM31.9985 13C25.9234 13 20.9985 17.9249 20.9985 24C20.9985 30.0751 25.9234 35 31.9985 35C38.0737 35 42.9985 30.0751 42.9985 24C42.9985 17.9249 38.0737 13 31.9985 13ZM18.9985 24C18.9985 16.8203 24.8188 11 31.9985 11C39.1782 11 44.9985 16.8203 44.9985 24C44.9985 31.1797 39.1782 37 31.9985 37C24.8188 37 18.9985 31.1797 18.9985 24Z" fill="url(#paint0_linear)"/>
<defs>
<linearGradient id="paint0_linear" x1="10.9985" y1="3" x2="59.0566" y2="8.55092" gradientUnits="userSpaceOnUse">
<stop stop-color="#04CF90"/>
<stop offset="1" stop-color="#9147FF"/>
</linearGradient>
</defs>
</svg>
